<svg width="1987" height="1987" viewBox="0 0 1987 1987" fill="none" xmlns="http://www.w3.org/2000/svg">
<rect width="1986.17" height="1986.17" rx="50" fill="#343A40"/>
<path d="M125 701.79C125 493.142 125 324 125 324H376.1H592.598C592.598 324 962 324 962 679.3C962 1015.6 627.2 1015.6 627.2 1015.6L962 1578L681.605 1576.84L376.1 1099.22V1576.84L125 1578C125 1578 125 910.437 125 701.79ZM376.1 491.2V679.3V867.4H468.17C468.17 867.4 710.9 867.4 710.9 679.3C710.9 491.2 468.17 491.2 468.17 491.2H376.1Z" fill="white"/>
<path d="M1059 324H1310.1V829.7L1651.01 324H1896L1561.2 951L1896 1578H1644.9L1317.38 1072.28V1264.5L1310.1 1578H1059V951V637.5V324Z" fill="white"/>
</svg>
