<svg width="5010" height="2904" viewBox="0 0 5010 2904" fill="none" xmlns="http://www.w3.org/2000/svg">
<rect width="5010" height="2904" rx="160" fill="#343A40"/>
<rect x="157" y="137" width="4695" height="2603" rx="160" fill="white"/>
<path d="M1445.91 684.713C1372 707.407 1298.09 779.148 1273.94 850.89C1254.18 909.455 1261.5 988.517 1292.23 1048.55C1320.04 1103.45 1376.39 1169.33 1432.01 1211.79C1451.77 1227.17 1468.6 1241.81 1468.6 1244C1468.6 1246.2 1446.65 1260.11 1421.03 1275.48C1270.28 1363.33 1195.63 1504.62 1227.1 1640.05C1278.33 1861.13 1547.64 2063.18 1769.38 2046.34C1800.11 2044.14 1842.56 2036.09 1863.78 2027.31L1901.84 2012.67L1979.41 2085.14C2022.59 2124.67 2067.23 2167.86 2078.94 2180.31L2100.89 2203L2125.04 2179.57L2149.19 2156.15L2056.98 2063.18L1964.04 1970.21L1983.07 1945.32C2047.47 1861.13 2036.49 1763.77 1951.6 1672.99C1898.18 1616.62 1847.68 1588.07 1791.33 1582.95C1713.03 1575.63 1665.46 1614.43 1660.34 1690.56C1656.68 1741.07 1671.31 1773.28 1724.74 1831.85C1764.99 1876.5 1764.99 1877.23 1703.51 1885.29C1613.5 1897 1501.53 1856 1440.06 1788.66C1382.98 1726.43 1367.61 1656.15 1392.49 1573.43C1408.59 1518.53 1477.38 1451.18 1573.98 1395.54L1645.7 1353.81L1688.15 1379.44C1796.45 1445.32 1912.08 1479 2028.44 1479C2136.75 1479 2215.79 1456.3 2290.43 1403.59L2310.19 1389.68V1703V2016.33L2367.27 2073.43L2424.35 2129.79L2447.77 2105.64L2471.19 2081.48V1457.77V834.053H2627.07H2782.95L2806.36 809.895L2829.78 785.737L2772.7 729.368L2716.35 673H2378.98H2042.35L2018.93 697.158L1995.51 721.316L2052.59 777.684L2108.94 834.053H2209.93H2310.19V990.713V1147.37L2257.5 1196.42C2196.76 1252.79 2133.82 1290.12 2072.35 1305.5C2007.95 1322.33 1898.91 1320.87 1822.07 1301.11L1758.4 1285.73L1784.01 1266.7C1869.64 1203.01 1904.03 1144.45 1903.3 1060.99C1901.1 839.909 1639.11 624.684 1445.91 684.713ZM1631.8 842.105C1664 850.89 1713.03 891.885 1729.86 924.828C1737.91 938.737 1742.3 965.823 1742.3 995.837C1742.3 1034.64 1738.64 1050.01 1723.27 1076.36C1703.51 1110.04 1652.29 1153.23 1606.91 1174.46C1580.57 1186.9 1579.84 1186.9 1543.25 1167.14C1456.89 1120.29 1424.69 1074.17 1424.69 995.837C1424.69 883.833 1522.02 811.359 1631.8 842.105ZM1862.32 1765.96C1863.78 1777.67 1859.39 1795.24 1852.07 1805.49L1839.63 1824.53L1830.12 1806.96C1819.87 1787.92 1816.95 1754.98 1825 1746.2C1837.44 1733.75 1860.12 1746.2 1862.32 1765.96Z" fill="#00A5EC"/>
<path d="M2696.46 1147.37V1389.68V1703.01V2016.33L2753.55 2073.43L2810.63 2129.79L2834.05 2105.64L2857.46 2081.48V1457.77V834.053H3013.34H3169.22L3192.64 809.895L3216.05 785.738L3158.97 729.369L3102.62 673.001H2765.25H2428.62L2405.2 697.159L2381.78 721.316L2438.86 777.685L2495.21 834.053H2596.2H2696.46V990.714V1147.37Z" fill="#00A5EC"/>
<path d="M379 633H581.635V1235.5L887.339 650.567H1129L756.752 1372.72L1129 2130H887.339L581.635 1510.88V1748.75V2130H379V1372.72V1002.86V633Z" fill="#00A5EC"/>
<path d="M4234 805.66L4171.1 1040.4L3661.36 903.83L3570.11 779.604C3557.89 762.976 3564.25 739.297 3583.15 731.017L3724.46 669.119L4234 805.66ZM4395.22 1033.73L4424.76 923.509C4433.97 889.129 4413.56 853.778 4379.18 844.567L4275.49 816.785L4212.58 1051.53L4316.28 1079.31C4350.67 1088.51 4386.01 1068.11 4395.22 1033.73Z" fill="black"/>
<path d="M4395.12 1033.7L4424.66 923.483C4433.87 889.102 4413.46 853.752 4379.08 844.541L4275.39 816.758L4212.48 1051.5L4316.18 1079.28C4350.57 1088.49 4385.91 1068.08 4395.12 1033.7Z" fill="#D83131"/>
<path d="M3724.46 668.983L3661.37 903.693L3570.12 779.467C3557.9 762.839 3564.25 739.16 3583.16 730.881L3724.46 668.983Z" fill="#00A5EC"/>
<rect x="4478.8" y="1853" width="414.723" height="1017.49" transform="rotate(90 4478.8 1853)" fill="#C4C4C4"/>
<rect x="4362.49" y="1991.38" width="414.723" height="1017.49" transform="rotate(90 4362.49 1991.38)" fill="black"/>
<path d="M4478.8 1853V2267.72L4362.49 2406.11V1991.38L4478.8 1853Z" fill="#9E9E9E"/>
<path d="M3461.31 1991.38V1853L3345 1991.38H3461.31Z" fill="#C4C4C4"/>
</svg>
